# xmcd
#
# Track frame offsets:
#	150
#	17481
#	38171
#	57384
#	78434
#	96085
#	117280
#	133905
#	152098
#	169158
#	187261
#	207261
#
# Disc length: 2968 seconds
#
# Revision: 0
# Processed by: cddbd v1.5.2PL0 Copyright (c) Steve Scherf et al.
# Submitted via: dBpowerAMP V4.0
#
DISCID=a30b960c
DTITLE=Rick Malis - Blue and Broken Hearted
DYEAR=2009
DGENRE=AlT. Country
TTITLE0=Blue and Brokenhearted
TTITLE1='57 ElDorado Cadillac
TTITLE2=What's Holding me Back
TTITLE3=This Crazy World
TTITLE4=Deep Freeze Blues
TTITLE5=I Want to Lose Myself
TTITLE6=Hard Traveling
TTITLE7=It Almost Feels Like Home
TTITLE8=Square Peg in a Round World
TTITLE9=Tom Shaler's Lament
TTITLE10=Your Wife's Been Cheating on Me
TTITLE11=One Good Year
EXTD=
EXTT0=
EXTT1=
EXTT2=
EXTT3=
EXTT4=
EXTT5=
EXTT6=
EXTT7=
EXTT8=
EXTT9=
EXTT10=
EXTT11=
PLAYORDER=
